<svg xmlns="http://www.w3.org/2000/svg" width="1090.408" height="390.28" viewBox="0 0 109.408 39.28">
  <g id="logo_blue" transform="translate(130.91 46.999)">
    <g id="Grupo_1" data-name="Grupo 1" transform="translate(-130.91 -46.999)">
      <path id="Caminho_1" data-name="Caminho 1" d="M23.28,10.016A2.023,2.023,0,0,0,25.3,7.992V3.461A2.024,2.024,0,0,0,23.28,1.437H10.628A2.024,2.024,0,0,0,8.6,3.461V8a2.023,2.023,0,0,1-2.023,2.023H2.024A2.023,2.023,0,0,0,0,12.043v4.529A2.023,2.023,0,0,0,2.024,18.6H6.581A2.023,2.023,0,0,1,8.6,20.619v4.535a2.023,2.023,0,0,0,2.023,2.023H23.28A2.023,2.023,0,0,0,25.3,25.154V20.619A2.023,2.023,0,0,0,23.28,18.6H10.628A2.024,2.024,0,0,1,8.6,16.572V12.039a2.023,2.023,0,0,1,2.023-2.023Z" transform="translate(-0.001 -0.837)" fill="#0573ff"/>
      <path id="Caminho_2" data-name="Caminho 2" d="M6.555,63.034H2.024A2.024,2.024,0,0,0,0,65.057v4.531a2.024,2.024,0,0,0,2.024,2.024H6.555a2.024,2.024,0,0,0,2.023-2.024V65.057a2.023,2.023,0,0,0-2.023-2.023" transform="translate(0 -36.694)" fill="#0573ff"/>
      <path id="Caminho_3" data-name="Caminho 3" d="M94.821,1.749l9.322,0V3.872l-6.779,0,0,4.237,5.72,0v1.78l-5.72,0,0,5.805-2.542,0Z" transform="translate(-55.194 -1.019)" fill="#0573ff"/>
      <path id="Caminho_4" data-name="Caminho 4" d="M126.343,13.956c0-1.568-.973-2.437-2.689-2.437a2.737,2.737,0,0,0-2.946,2.583l5.635,0Zm2.139,1.59-7.839,0c.126,2.013,1.249,3.094,3.028,3.095,1.525,0,2.564-.677,2.67-1.906h2.14c-.086,2.33-1.993,3.749-4.854,3.748-3.3,0-5.38-2.037-5.379-5.32,0-3.39,2.079-5.486,5.384-5.485,2.966,0,4.851,1.761,4.849,5.024Z" transform="translate(-68.836 -5.633)" fill="#0573ff"/>
      <rect id="Retângulo_1" data-name="Retângulo 1" width="2.373" height="14.682" transform="translate(61.619)" fill="#0573ff"/>
      <path id="Caminho_5" data-name="Caminho 5" d="M158.843,5.136h2.373L161.211,15.6h-2.373Zm-.02-3.559h2.436v2.33h-2.437Z" transform="translate(-92.454 -0.919)" fill="#0573ff"/>
      <path id="Caminho_6" data-name="Caminho 6" d="M178,14.979c0-2.013-1.163-3.327-3.049-3.328a3.209,3.209,0,0,0-3.328,3.431v.551c0,1.78,1.333,2.924,3.367,2.926,1.822,0,3.009-1.4,3.01-3.579m-8.747-5.11h2.373l-.043,2.436h.021c.425-1.589,1.823-2.605,3.9-2.6,2.987,0,4.872,2.057,4.87,5.214,0,3.39-1.91,5.592-4.918,5.591-2.076,0-3.432-.934-3.876-2.29h-.021c.021.7.063,1.779.062,2.2l0,4.11H169.25Z" transform="translate(-98.524 -5.648)" fill="#0573ff"/>
      <path id="Caminho_7" data-name="Caminho 7" d="M208.968,14.994c0-2.013-1.163-3.327-3.049-3.328a3.209,3.209,0,0,0-3.328,3.431v.551c0,1.78,1.333,2.925,3.367,2.926,1.822,0,3.009-1.4,3.01-3.579m-8.747-5.11h2.373l-.044,2.436h.021c.425-1.589,1.823-2.605,3.9-2.6,2.987,0,4.872,2.057,4.87,5.214,0,3.39-1.91,5.592-4.918,5.591-2.076,0-3.432-.934-3.876-2.29h-.021c.021.7.063,1.779.063,2.2l0,4.11h-2.373Z" transform="translate(-116.549 -5.657)" fill="#0573ff"/>
      <path id="Caminho_8" data-name="Caminho 8" d="M238.452,14.012c0-1.568-.973-2.437-2.689-2.437a2.737,2.737,0,0,0-2.946,2.583l5.635,0Zm2.139,1.59-7.839,0c.126,2.013,1.249,3.094,3.028,3.095,1.525,0,2.564-.677,2.67-1.906h2.14c-.086,2.33-1.993,3.749-4.854,3.748-3.3,0-5.38-2.037-5.379-5.32,0-3.39,2.079-5.486,5.384-5.485,2.966,0,4.851,1.761,4.849,5.023Z" transform="translate(-134.097 -5.665)" fill="#0573ff"/>
      <path id="Caminho_9" data-name="Caminho 9" d="M100.75,57.595a2.569,2.569,0,0,0,2.9-2.837c0-1.843-1.122-2.861-3.155-2.862H97.363l0,5.7Zm-5.928-7.821,5.763,0c3.453,0,5.487,1.74,5.485,4.854,0,3.03-1.824,4.766-5.172,4.765l-3.538,0,0,4.322H94.815Z" transform="translate(-55.194 -28.975)" fill="#0573ff"/>
      <path id="Caminho_10" data-name="Caminho 10" d="M132.273,61.984c0-1.568-.973-2.437-2.689-2.438a2.738,2.738,0,0,0-2.946,2.583l5.635,0Zm2.139,1.59-7.839,0c.126,2.013,1.249,3.094,3.028,3.095,1.525,0,2.564-.677,2.67-1.906h2.14c-.086,2.33-1.993,3.749-4.854,3.748-3.3,0-5.38-2.037-5.379-5.321,0-3.389,2.079-5.486,5.384-5.485,2.966,0,4.851,1.761,4.849,5.024Z" transform="translate(-72.287 -33.591)" fill="#0573ff"/>
      <path id="Caminho_11" data-name="Caminho 11" d="M171.856,63.13c0-3.348,2.1-5.4,5.257-5.4,2.923,0,4.83,1.7,4.828,4.473H179.8a2.409,2.409,0,0,0-2.626-2.522c-1.822,0-2.946,1.291-2.947,3.452,0,2.14,1.1,3.454,2.859,3.455a2.433,2.433,0,0,0,2.734-2.478h2.14c0,2.8-1.994,4.427-4.981,4.425-3.072,0-5.126-2.058-5.124-5.4" transform="translate(-100.041 -33.607)" fill="#0573ff"/>
      <path id="Caminho_12" data-name="Caminho 12" d="M200.234,53.185h2.373L202.6,63.652h-2.373Zm-.02-3.559h2.437v2.33h-2.437Z" transform="translate(-116.549 -28.889)" fill="#0573ff"/>
      <path id="Caminho_13" data-name="Caminho 13" d="M211.685,58.823c0,1.25.91,2.035,2.393,2.035s2.394-.783,2.4-2.033-.91-2.034-2.393-2.035-2.394.783-2.4,2.033M217.719,67c0-.7-.529-1.081-1.652-1.081l-2.839,0c-1.186,0-1.949.359-1.95,1.165,0,1,1.271,1.483,3.283,1.485,2.225,0,3.157-.634,3.157-1.567m2.373-.274c0,2.2-2.057,3.516-5.51,3.514-3.538,0-5.656-1.083-5.655-2.969a1.93,1.93,0,0,1,2.035-1.906v-.021a1.97,1.97,0,0,1-.91-1.717,1.857,1.857,0,0,1,.975-1.779V61.81a3.338,3.338,0,0,1-1.609-2.988c0-2.288,1.781-3.728,4.663-3.727a5.739,5.739,0,0,1,2.923.679l.021-.021a1.725,1.725,0,0,1-.508-1.187c0-.847.806-1.377,2.056-1.376a4.15,4.15,0,0,1,1.059.107v1.674a2.03,2.03,0,0,0-.7-.107c-.7,0-1.038.3-1.038.868a3.868,3.868,0,0,0,.232,1.059,3.4,3.4,0,0,1,.613,2.034c0,2.31-1.781,3.728-4.663,3.727a7.065,7.065,0,0,1-1.843-.234,1.291,1.291,0,0,0-.255.805c0,.593.423.954,1.186.954h3.39c2.246,0,3.538.977,3.537,2.65" transform="translate(-121.621 -30.964)" fill="#0573ff"/>
      <path id="Caminho_14" data-name="Caminho 14" d="M244.188,63.188c0-2.14-1.185-3.475-3.113-3.476s-3.094,1.333-3.095,3.473c0,2.119,1.164,3.432,3.092,3.433s3.115-1.312,3.116-3.43m-8.58,0a5.073,5.073,0,0,1,5.469-5.421c3.347,0,5.486,2.079,5.485,5.426,0,3.326-2.142,5.381-5.49,5.379-3.326,0-5.465-2.058-5.463-5.384" transform="translate(-137.153 -33.626)" fill="#0573ff"/>
      <path id="Caminho_15" data-name="Caminho 15" d="M159.252,59.826c-2.3,0-3.641,1.852-3.641,5v3.534h-2.385V57.846h2.385l-.085,3.364h.043c.489-2.449,1.682-3.492,3.641-3.492a3.944,3.944,0,0,1,1.363.213v2.086a4.849,4.849,0,0,0-1.32-.191" transform="translate(-89.197 -33.6)" fill="#0573ff"/>
    </g>
  </g>
</svg>